<svg preserveAspectRatio="none" width="100%" height="100%" overflow="visible" style="display: block;" viewBox="0 0 52 52" fill="none" xmlns="http://www.w3.org/2000/svg">
<g id="&#235;&#182;&#129;&#235;&#167;&#136;&#237;&#129;&#172;">
<path id="Vector" d="M39 45.5C39 42.0522 37.6304 38.7456 35.1924 36.3076C32.7544 33.8696 29.4478 32.5 26 32.5C22.5522 32.5 19.2456 33.8696 16.8076 36.3076C14.3696 38.7456 13 42.0522 13 45.5" stroke="var(--stroke-0, black)" stroke-width="4.33333" stroke-linecap="round" stroke-linejoin="round"/>
<path id="Vector_2" d="M26 32.5C30.7865 32.5 34.6667 28.6198 34.6667 23.8333C34.6667 19.0469 30.7865 15.1667 26 15.1667C21.2135 15.1667 17.3333 19.0469 17.3333 23.8333C17.3333 28.6198 21.2135 32.5 26 32.5Z" stroke="var(--stroke-0, black)" stroke-width="4.33333" stroke-linecap="round" stroke-linejoin="round"/>
<path id="Vector_3" d="M41.1667 6.5H10.8333C8.4401 6.5 6.5 8.4401 6.5 10.8333V41.1667C6.5 43.5599 8.4401 45.5 10.8333 45.5H41.1667C43.5599 45.5 45.5 43.5599 45.5 41.1667V10.8333C45.5 8.4401 43.5599 6.5 41.1667 6.5Z" stroke="var(--stroke-0, black)" stroke-width="4.33333" stroke-linecap="round" stroke-linejoin="round"/>
</g>
</svg>
